<svg width="240" height="54" viewBox="0 0 240 54" fill="none" xmlns="http://www.w3.org/2000/svg">
<path d="M44.2088 24.09C43.3688 24.09 42.5828 23.91 41.8508 23.55C41.1308 23.178 40.5008 22.686 39.9608 22.074C39.4208 21.45 39.0008 20.754 38.7008 19.986C38.4008 19.206 38.2508 18.402 38.2508 17.574C38.2508 16.71 38.4008 15.894 38.7008 15.126C39.0008 14.346 39.4148 13.656 39.9428 13.056C40.4828 12.456 41.1128 11.988 41.8328 11.652C42.5648 11.304 43.3568 11.13 44.2088 11.13C45.4448 11.13 46.4648 11.388 47.2688 11.904C48.0728 12.42 48.6788 13.092 49.0868 13.92L47.8448 14.784C47.4728 14.04 46.9628 13.488 46.3148 13.128C45.6668 12.768 44.9528 12.588 44.1728 12.588C43.5248 12.588 42.9368 12.726 42.4088 13.002C41.8808 13.278 41.4248 13.656 41.0408 14.136C40.6688 14.604 40.3808 15.138 40.1768 15.738C39.9848 16.338 39.8888 16.962 39.8888 17.61C39.8888 18.294 39.9968 18.942 40.2128 19.554C40.4408 20.154 40.7588 20.688 41.1668 21.156C41.5748 21.612 42.0488 21.972 42.5888 22.236C43.1288 22.5 43.7108 22.632 44.3348 22.632C45.0668 22.632 45.7628 22.446 46.4228 22.074C47.0828 21.702 47.7068 21.132 48.2948 20.364V22.038C47.1428 23.406 45.7808 24.09 44.2088 24.09ZM48.0968 18.852H45.3428V17.628H49.4648V24H48.0968V18.852ZM55.8164 11.22H57.1844L62.4044 24H60.6764L59.1644 20.256H53.8004L52.3064 24H50.5784L55.8164 11.22ZM58.8044 18.996L56.5004 13.092L54.1244 18.996H58.8044ZM73.9201 20.706C73.9201 21.366 73.7521 21.942 73.4161 22.434C73.0801 22.926 72.6241 23.31 72.0481 23.586C71.4841 23.862 70.8601 24 70.1761 24H64.1101V11.22H70.4641C71.0641 11.22 71.5801 11.382 72.0121 11.706C72.4561 12.018 72.7921 12.426 73.0201 12.93C73.2601 13.422 73.3801 13.938 73.3801 14.478C73.3801 15.102 73.2181 15.69 72.8941 16.242C72.5821 16.782 72.1321 17.184 71.5441 17.448C72.2761 17.664 72.8521 18.066 73.2721 18.654C73.7041 19.23 73.9201 19.914 73.9201 20.706ZM72.2821 20.418C72.2821 20.022 72.1921 19.656 72.0121 19.32C71.8441 18.984 71.6101 18.714 71.3101 18.51C71.0221 18.306 70.6861 18.204 70.3021 18.204H65.7301V22.596H70.1761C70.5721 22.596 70.9261 22.494 71.2381 22.29C71.5621 22.086 71.8141 21.822 71.9941 21.498C72.1861 21.162 72.2821 20.802 72.2821 20.418ZM65.7301 12.624V16.89H69.7981C70.1821 16.89 70.5181 16.794 70.8061 16.602C71.1061 16.41 71.3401 16.152 71.5081 15.828C71.6881 15.504 71.7781 15.15 71.7781 14.766C71.7781 14.358 71.6941 13.998 71.5261 13.686C71.3701 13.362 71.1481 13.104 70.8601 12.912C70.5841 12.72 70.2661 12.624 69.9061 12.624H65.7301ZM76.1863 24V11.22H81.6583C82.2223 11.22 82.7383 11.34 83.2063 11.58C83.6743 11.808 84.0823 12.12 84.4303 12.516C84.7783 12.9 85.0483 13.338 85.2402 13.83C85.4323 14.31 85.5283 14.802 85.5283 15.306C85.5283 15.894 85.4143 16.452 85.1863 16.98C84.9703 17.508 84.6583 17.958 84.2503 18.33C83.8543 18.702 83.3863 18.96 82.8463 19.104L85.9423 24H84.1063L81.1903 19.41H77.8063V24H76.1863ZM77.8063 17.97H81.6763C82.1203 17.97 82.5043 17.85 82.8283 17.61C83.1643 17.358 83.4223 17.028 83.6023 16.62C83.7943 16.212 83.8903 15.774 83.8903 15.306C83.8903 14.826 83.7823 14.388 83.5663 13.992C83.3503 13.584 83.0683 13.26 82.7203 13.02C82.3723 12.78 81.9883 12.66 81.5683 12.66H77.8063V17.97ZM88.0163 24V11.22H89.6363V24H88.0163ZM101.368 22.56V24H92.6921V11.22H101.206V12.66H94.3121V16.8H100.306V18.15H94.3121V22.56H101.368ZM103.591 24V11.22H105.211V22.56H112.339V24H103.591ZM123.24 24.09C122.4 24.09 121.614 23.91 120.882 23.55C120.162 23.178 119.532 22.686 118.992 22.074C118.452 21.45 118.032 20.754 117.732 19.986C117.432 19.206 117.282 18.402 117.282 17.574C117.282 16.71 117.432 15.894 117.732 15.126C118.032 14.346 118.446 13.656 118.974 13.056C119.514 12.456 120.144 11.988 120.864 11.652C121.596 11.304 122.388 11.13 123.24 11.13C124.476 11.13 125.496 11.388 126.3 11.904C127.104 12.42 127.71 13.092 128.118 13.92L126.876 14.784C126.504 14.04 125.994 13.488 125.346 13.128C124.698 12.768 123.984 12.588 123.204 12.588C122.556 12.588 121.968 12.726 121.44 13.002C120.912 13.278 120.456 13.656 120.072 14.136C119.7 14.604 119.412 15.138 119.208 15.738C119.016 16.338 118.92 16.962 118.92 17.61C118.92 18.294 119.028 18.942 119.244 19.554C119.472 20.154 119.79 20.688 120.198 21.156C120.606 21.612 121.08 21.972 121.62 22.236C122.16 22.5 122.742 22.632 123.366 22.632C124.098 22.632 124.794 22.446 125.454 22.074C126.114 21.702 126.738 21.132 127.326 20.364V22.038C126.174 23.406 124.812 24.09 123.24 24.09ZM127.128 18.852H124.374V17.628H128.496V24H127.128V18.852ZM141.238 11.22V24H139.618V18.186H132.58V24H130.96V11.22H132.58V16.746H139.618V11.22H141.238ZM144.301 24V11.22H145.921V24H144.301ZM152.865 11.22H154.233L159.453 24H157.725L156.213 20.256H150.849L149.355 24H147.627L152.865 11.22ZM155.853 18.996L153.549 13.092L151.173 18.996H155.853ZM161.159 24V11.22H166.631C167.195 11.22 167.711 11.34 168.179 11.58C168.647 11.808 169.055 12.12 169.403 12.516C169.751 12.9 170.021 13.338 170.213 13.83C170.405 14.31 170.501 14.802 170.501 15.306C170.501 15.894 170.387 16.452 170.159 16.98C169.943 17.508 169.631 17.958 169.223 18.33C168.827 18.702 168.359 18.96 167.819 19.104L170.915 24H169.079L166.163 19.41H162.779V24H161.159ZM162.779 17.97H166.649C167.093 17.97 167.477 17.85 167.801 17.61C168.137 17.358 168.395 17.028 168.575 16.62C168.767 16.212 168.863 15.774 168.863 15.306C168.863 14.826 168.755 14.388 168.539 13.992C168.323 13.584 168.041 13.26 167.693 13.02C167.345 12.78 166.961 12.66 166.541 12.66H162.779V17.97ZM178.173 24.09C177.273 24.09 176.457 23.91 175.725 23.55C174.993 23.19 174.357 22.704 173.817 22.092C173.289 21.468 172.881 20.772 172.593 20.004C172.305 19.224 172.161 18.426 172.161 17.61C172.161 16.758 172.311 15.948 172.611 15.18C172.923 14.4 173.349 13.71 173.889 13.11C174.441 12.498 175.083 12.018 175.815 11.67C176.547 11.31 177.345 11.13 178.209 11.13C179.109 11.13 179.925 11.316 180.657 11.688C181.389 12.06 182.019 12.558 182.547 13.182C183.075 13.806 183.483 14.502 183.771 15.27C184.059 16.038 184.203 16.824 184.203 17.628C184.203 18.48 184.053 19.296 183.753 20.076C183.453 20.844 183.027 21.534 182.475 22.146C181.935 22.746 181.299 23.22 180.567 23.568C179.835 23.916 179.037 24.09 178.173 24.09ZM173.799 17.61C173.799 18.258 173.901 18.888 174.105 19.5C174.321 20.1 174.621 20.634 175.005 21.102C175.389 21.57 175.851 21.942 176.391 22.218C176.931 22.494 177.531 22.632 178.191 22.632C178.875 22.632 179.487 22.488 180.027 22.2C180.567 21.912 181.023 21.528 181.395 21.048C181.779 20.568 182.067 20.028 182.259 19.428C182.463 18.828 182.565 18.222 182.565 17.61C182.565 16.962 182.457 16.338 182.241 15.738C182.037 15.138 181.737 14.604 181.341 14.136C180.957 13.656 180.495 13.284 179.955 13.02C179.427 12.744 178.839 12.606 178.191 12.606C177.507 12.606 176.895 12.75 176.355 13.038C175.815 13.314 175.353 13.692 174.969 14.172C174.597 14.652 174.309 15.192 174.105 15.792C173.901 16.38 173.799 16.986 173.799 17.61ZM188.074 14.208V24H186.454V11.22H187.822L195.634 21.21V11.238H197.254V24H195.778L188.074 14.208ZM200.305 24V11.22H201.925V24H200.305Z" fill="black"/>
<path d="M64.8122 32.9H69.2122L69.1122 33.36H65.2222L64.6322 36.18H67.9222L67.8322 36.62H64.5322L63.8122 40H63.3022L64.8122 32.9ZM69.0835 40L70.5935 32.9H73.4135C73.7401 32.9 74.0168 32.9867 74.2435 33.16C74.4768 33.3333 74.6535 33.56 74.7735 33.84C74.9001 34.12 74.9635 34.4133 74.9635 34.72C74.9635 35.0133 74.9068 35.3 74.7935 35.58C74.6868 35.86 74.5368 36.12 74.3435 36.36C74.1568 36.5933 73.9368 36.79 73.6835 36.95C73.4368 37.1033 73.1701 37.2 72.8835 37.24L73.9635 40H73.3835L72.3235 37.32H70.1635L69.5935 40H69.0835ZM72.6135 36.85C72.8668 36.85 73.1001 36.79 73.3135 36.67C73.5335 36.55 73.7268 36.39 73.8935 36.19C74.0668 35.9833 74.2001 35.76 74.2935 35.52C74.3868 35.2733 74.4335 35.0267 74.4335 34.78C74.4335 34.52 74.3868 34.2867 74.2935 34.08C74.2001 33.8667 74.0668 33.6933 73.8935 33.56C73.7201 33.4267 73.5168 33.36 73.2835 33.36H71.0035L70.2635 36.85H72.6135ZM78.0637 40.05C77.637 40.05 77.2637 39.97 76.9437 39.81C76.6304 39.65 76.367 39.4333 76.1537 39.16C75.947 38.8867 75.7904 38.5767 75.6837 38.23C75.5837 37.8833 75.5337 37.52 75.5337 37.14C75.5337 36.6933 75.6037 36.26 75.7437 35.84C75.8837 35.4133 76.077 35.02 76.3237 34.66C76.577 34.3 76.8704 33.9867 77.2037 33.72C77.537 33.4467 77.9004 33.2333 78.2937 33.08C78.687 32.9267 79.0937 32.85 79.5137 32.85C79.9404 32.85 80.3104 32.9333 80.6237 33.1C80.9437 33.26 81.207 33.48 81.4137 33.76C81.627 34.0333 81.7837 34.3433 81.8837 34.69C81.9837 35.0367 82.0337 35.4 82.0337 35.78C82.0337 36.2267 81.9637 36.66 81.8237 37.08C81.6904 37.4933 81.497 37.88 81.2437 38.24C80.997 38.6 80.7037 38.9167 80.3637 39.19C80.0304 39.4567 79.667 39.6667 79.2737 39.82C78.887 39.9733 78.4837 40.05 78.0637 40.05ZM78.1537 39.58C78.627 39.58 79.067 39.4733 79.4737 39.26C79.8804 39.04 80.237 38.75 80.5437 38.39C80.8504 38.03 81.087 37.6267 81.2537 37.18C81.427 36.7267 81.5137 36.27 81.5137 35.81C81.5137 35.37 81.437 34.9633 81.2837 34.59C81.137 34.21 80.907 33.9033 80.5937 33.67C80.287 33.4367 79.897 33.32 79.4237 33.32C78.9504 33.32 78.5104 33.4267 78.1037 33.64C77.697 33.8533 77.3404 34.1433 77.0337 34.51C76.727 34.87 76.487 35.2767 76.3137 35.73C76.1404 36.1767 76.0537 36.6333 76.0537 37.1C76.0537 37.54 76.1304 37.95 76.2837 38.33C76.437 38.7033 76.667 39.0067 76.9737 39.24C77.287 39.4667 77.6804 39.58 78.1537 39.58ZM84.07 32.9H84.47L87.83 39.15L89.15 32.91H89.66L88.15 40H87.7L84.38 33.86L83.07 40H82.56L84.07 32.9ZM93.0921 33.36H90.6321L90.7221 32.9H96.1621L96.0621 33.36H93.6021L92.1821 40H91.6821L93.0921 33.36ZM95.4179 37.51L95.5179 37.05H98.2579L98.1579 37.51H95.4179ZM100.711 32.9H105.121L105.031 33.36H101.121L100.531 36.15H103.941L103.841 36.59H100.441L99.8107 39.54H103.801L103.701 40H99.2007L100.711 32.9ZM106.551 32.9H106.951L110.311 39.15L111.631 32.91H112.141L110.631 40H110.181L106.861 33.86L105.551 40H105.041L106.551 32.9ZM113.963 32.9H116.213C116.806 32.9 117.289 33.02 117.663 33.26C118.043 33.5 118.323 33.8267 118.503 34.24C118.689 34.6467 118.783 35.1033 118.783 35.61C118.783 36.2367 118.679 36.82 118.473 37.36C118.273 37.8933 117.989 38.3567 117.623 38.75C117.256 39.1433 116.823 39.45 116.323 39.67C115.829 39.89 115.289 40 114.703 40H112.453L113.963 32.9ZM114.803 39.54C115.343 39.54 115.823 39.4367 116.243 39.23C116.669 39.0167 117.033 38.73 117.333 38.37C117.633 38.01 117.859 37.6033 118.013 37.15C118.173 36.69 118.253 36.2067 118.253 35.7C118.253 35.2467 118.173 34.8433 118.013 34.49C117.853 34.1367 117.613 33.86 117.293 33.66C116.979 33.46 116.586 33.36 116.113 33.36H114.373L113.063 39.54H114.803ZM123.357 32.9H125.607C126.2 32.9 126.684 33.02 127.057 33.26C127.437 33.5 127.717 33.8267 127.897 34.24C128.084 34.6467 128.177 35.1033 128.177 35.61C128.177 36.2367 128.074 36.82 127.867 37.36C127.667 37.8933 127.384 38.3567 127.017 38.75C126.65 39.1433 126.217 39.45 125.717 39.67C125.224 39.89 124.684 40 124.097 40H121.847L123.357 32.9ZM124.197 39.54C124.737 39.54 125.217 39.4367 125.637 39.23C126.064 39.0167 126.427 38.73 126.727 38.37C127.027 38.01 127.254 37.6033 127.407 37.15C127.567 36.69 127.647 36.2067 127.647 35.7C127.647 35.2467 127.567 34.8433 127.407 34.49C127.247 34.1367 127.007 33.86 126.687 33.66C126.374 33.46 125.98 33.36 125.507 33.36H123.767L122.457 39.54H124.197ZM130.242 32.9H134.652L134.562 33.36H130.652L130.062 36.15H133.472L133.372 36.59H129.972L129.342 39.54H133.332L133.232 40H128.732L130.242 32.9ZM135.282 32.9H135.822L137.002 39.36L140.912 32.9H141.452L137.092 40H136.622L135.282 32.9ZM142.556 32.9H146.966L146.876 33.36H142.966L142.376 36.15H145.786L145.686 36.59H142.286L141.656 39.54H145.646L145.546 40H141.046L142.556 32.9ZM148.396 32.9H148.906L147.496 39.54H151.506L151.406 40H146.886L148.396 32.9ZM154.685 40.05C154.258 40.05 153.885 39.97 153.565 39.81C153.251 39.65 152.988 39.4333 152.775 39.16C152.568 38.8867 152.411 38.5767 152.305 38.23C152.205 37.8833 152.155 37.52 152.155 37.14C152.155 36.6933 152.225 36.26 152.365 35.84C152.505 35.4133 152.698 35.02 152.945 34.66C153.198 34.3 153.491 33.9867 153.825 33.72C154.158 33.4467 154.521 33.2333 154.915 33.08C155.308 32.9267 155.715 32.85 156.135 32.85C156.561 32.85 156.931 32.9333 157.245 33.1C157.565 33.26 157.828 33.48 158.035 33.76C158.248 34.0333 158.405 34.3433 158.505 34.69C158.605 35.0367 158.655 35.4 158.655 35.78C158.655 36.2267 158.585 36.66 158.445 37.08C158.311 37.4933 158.118 37.88 157.865 38.24C157.618 38.6 157.325 38.9167 156.985 39.19C156.651 39.4567 156.288 39.6667 155.895 39.82C155.508 39.9733 155.105 40.05 154.685 40.05ZM154.775 39.58C155.248 39.58 155.688 39.4733 156.095 39.26C156.501 39.04 156.858 38.75 157.165 38.39C157.471 38.03 157.708 37.6267 157.875 37.18C158.048 36.7267 158.135 36.27 158.135 35.81C158.135 35.37 158.058 34.9633 157.905 34.59C157.758 34.21 157.528 33.9033 157.215 33.67C156.908 33.4367 156.518 33.32 156.045 33.32C155.571 33.32 155.131 33.4267 154.725 33.64C154.318 33.8533 153.961 34.1433 153.655 34.51C153.348 34.87 153.108 35.2767 152.935 35.73C152.761 36.1767 152.675 36.6333 152.675 37.1C152.675 37.54 152.751 37.95 152.905 38.33C153.058 38.7033 153.288 39.0067 153.595 39.24C153.908 39.4667 154.301 39.58 154.775 39.58ZM160.691 32.9H163.431C163.771 32.9 164.058 32.9867 164.291 33.16C164.531 33.3333 164.711 33.56 164.831 33.84C164.958 34.1133 165.021 34.4033 165.021 34.71C165.021 35.0233 164.958 35.3367 164.831 35.65C164.704 35.9567 164.528 36.2367 164.301 36.49C164.081 36.7433 163.821 36.9467 163.521 37.1C163.228 37.2467 162.918 37.32 162.591 37.32H160.261L159.691 40H159.181L160.691 32.9ZM162.671 36.85C162.924 36.85 163.161 36.79 163.381 36.67C163.608 36.5433 163.804 36.3767 163.971 36.17C164.138 35.9633 164.268 35.7367 164.361 35.49C164.454 35.2433 164.501 34.9933 164.501 34.74C164.501 34.4867 164.451 34.2567 164.351 34.05C164.258 33.8433 164.124 33.6767 163.951 33.55C163.778 33.4233 163.574 33.36 163.341 33.36H161.101L160.361 36.85H162.671ZM166.668 32.9H171.078L170.988 33.36H167.078L166.488 36.15H169.898L169.798 36.59H166.398L165.768 39.54H169.758L169.658 40H165.158L166.668 32.9ZM170.998 40L172.508 32.9H175.328C175.654 32.9 175.931 32.9867 176.158 33.16C176.391 33.3333 176.568 33.56 176.688 33.84C176.814 34.12 176.878 34.4133 176.878 34.72C176.878 35.0133 176.821 35.3 176.708 35.58C176.601 35.86 176.451 36.12 176.258 36.36C176.071 36.5933 175.851 36.79 175.598 36.95C175.351 37.1033 175.084 37.2 174.798 37.24L175.878 40H175.298L174.238 37.32H172.078L171.508 40H170.998ZM174.528 36.85C174.781 36.85 175.014 36.79 175.228 36.67C175.448 36.55 175.641 36.39 175.808 36.19C175.981 35.9833 176.114 35.76 176.208 35.52C176.301 35.2733 176.348 35.0267 176.348 34.78C176.348 34.52 176.301 34.2867 176.208 34.08C176.114 33.8667 175.981 33.6933 175.808 33.56C175.634 33.4267 175.431 33.36 175.198 33.36H172.918L172.178 36.85H174.528Z" fill="black"/>
</svg>
